<svg xmlns="http://www.w3.org/2000/svg" width="1200" height="420" viewBox="0 0 1200 420" role="img" aria-labelledby="title desc">
  <title id="title">Tanetsumi no Uta bilingual subtitle patch</title>
  <desc id="desc">A Chinese and Japanese bilingual subtitle patch banner for Tanetsumi no Uta.</desc>
  <defs>
    <linearGradient id="sky" x1="0" y1="0" x2="1" y2="1">
      <stop offset="0" stop-color="#cfeeff"/>
      <stop offset="0.52" stop-color="#fff7df"/>
      <stop offset="1" stop-color="#f4c7b4"/>
    </linearGradient>
    <linearGradient id="ink" x1="0" y1="0" x2="1" y2="0">
      <stop offset="0" stop-color="#284566"/>
      <stop offset="1" stop-color="#7d3b36"/>
    </linearGradient>
    <filter id="shadow" x="-20%" y="-20%" width="140%" height="140%">
      <feDropShadow dx="0" dy="8" stdDeviation="12" flood-color="#3b2d25" flood-opacity="0.22"/>
    </filter>
  </defs>
  <rect width="1200" height="420" fill="url(#sky)"/>
  <circle cx="998" cy="86" r="142" fill="#ffffff" opacity="0.34"/>
  <circle cx="1038" cy="92" r="92" fill="#fff3c8" opacity="0.45"/>
  <path d="M0 314 C168 280 248 342 406 305 C548 272 658 240 812 288 C968 337 1056 310 1200 270 L1200 420 L0 420 Z" fill="#6fa78f" opacity="0.38"/>
  <path d="M0 346 C158 317 268 365 418 337 C591 304 704 314 846 354 C1002 398 1092 359 1200 335 L1200 420 L0 420 Z" fill="#355c5f" opacity="0.28"/>
  <g filter="url(#shadow)">
    <rect x="82" y="66" width="1036" height="288" rx="24" fill="#fffaf0" opacity="0.88"/>
    <rect x="82" y="66" width="1036" height="288" rx="24" fill="none" stroke="#ffffff" stroke-width="3" opacity="0.75"/>
  </g>
  <text x="120" y="145" font-family="'Noto Serif CJK SC','Source Han Serif SC','Yu Mincho','Times New Roman',serif" font-size="46" font-weight="700" fill="url(#ink)">播种之谣 / たねつみの歌</text>
  <text x="120" y="207" font-family="'Noto Sans CJK SC','Microsoft YaHei','Meiryo',sans-serif" font-size="58" font-weight="800" fill="#27384d">日中双语字幕补丁</text>
  <text x="124" y="258" font-family="'Noto Sans CJK SC','Microsoft YaHei','Meiryo',sans-serif" font-size="30" fill="#5f5148">Japanese main subtitles + Simplified Chinese support subtitles</text>
  <g transform="translate(122 292)">
    <rect width="214" height="40" rx="20" fill="#27384d" opacity="0.92"/>
    <text x="24" y="27" font-family="'Noto Sans CJK SC','Microsoft YaHei',sans-serif" font-size="20" fill="#fff7df">日语学习者向</text>
  </g>
  <g transform="translate(356 292)">
    <rect width="246" height="40" rx="20" fill="#9b5847" opacity="0.92"/>
    <text x="24" y="27" font-family="'Noto Sans CJK SC','Microsoft YaHei',sans-serif" font-size="20" fill="#fff7df">Steam 版 Windows</text>
  </g>
  <g transform="translate(622 292)">
    <rect width="230" height="40" rx="20" fill="#5e856e" opacity="0.94"/>
    <text x="24" y="27" font-family="'Noto Sans CJK SC','Microsoft YaHei',sans-serif" font-size="20" fill="#fff7df">一键安装/卸载</text>
  </g>
</svg>
