<svg xmlns="http://www.w3.org/2000/svg" width="1280" height="640" viewBox="0 0 1280 640" role="img" aria-labelledby="title desc">
  <title id="title">Tanetsumi no Uta bilingual subtitle patch social preview</title>
  <desc id="desc">Social preview image for a Japanese and Simplified Chinese bilingual subtitle patch.</desc>
  <defs>
    <linearGradient id="bg" x1="0" y1="0" x2="1" y2="1">
      <stop offset="0" stop-color="#d7f1ff"/>
      <stop offset="0.48" stop-color="#fff6db"/>
      <stop offset="1" stop-color="#e8b6a8"/>
    </linearGradient>
    <linearGradient id="panel" x1="0" y1="0" x2="0" y2="1">
      <stop offset="0" stop-color="#fffdf6"/>
      <stop offset="1" stop-color="#f4ead2"/>
    </linearGradient>
    <filter id="softShadow" x="-20%" y="-20%" width="140%" height="140%">
      <feDropShadow dx="0" dy="18" stdDeviation="18" flood-color="#3d312b" flood-opacity="0.22"/>
    </filter>
  </defs>
  <rect width="1280" height="640" fill="url(#bg)"/>
  <circle cx="1080" cy="116" r="190" fill="#fff9db" opacity="0.55"/>
  <path d="M0 438 C132 390 270 415 392 382 C552 340 680 374 814 423 C972 480 1118 418 1280 380 L1280 640 L0 640 Z" fill="#6d9e86" opacity="0.36"/>
  <path d="M0 510 C160 472 278 520 430 488 C612 449 765 462 918 520 C1040 566 1166 530 1280 496 L1280 640 L0 640 Z" fill="#2d505a" opacity="0.23"/>
  <g filter="url(#softShadow)">
    <rect x="92" y="88" width="1096" height="408" rx="30" fill="url(#panel)" opacity="0.93"/>
    <rect x="92" y="88" width="1096" height="408" rx="30" fill="none" stroke="#ffffff" stroke-width="4" opacity="0.8"/>
  </g>
  <text x="140" y="176" font-family="'Noto Serif CJK SC','Yu Mincho','Times New Roman',serif" font-size="54" font-weight="700" fill="#6b3b35">播种之谣 / たねつみの歌</text>
  <text x="140" y="270" font-family="'Noto Sans CJK SC','Microsoft YaHei','Meiryo',sans-serif" font-size="76" font-weight="800" fill="#263b55">日中双语字幕补丁</text>
  <text x="144" y="340" font-family="'Noto Sans CJK SC','Microsoft YaHei','Meiryo',sans-serif" font-size="34" fill="#574f4c">Japanese main subtitles + Simplified Chinese support subtitles</text>
  <g transform="translate(144 390)" font-family="'Noto Sans CJK SC','Microsoft YaHei','Meiryo',sans-serif" font-size="24" font-weight="700">
    <rect width="238" height="50" rx="25" fill="#263b55"/>
    <text x="26" y="33" fill="#fff7df">Japanese learning</text>
    <rect x="260" width="210" height="50" rx="25" fill="#986150"/>
    <text x="286" y="33" fill="#fff7df">Steam / Windows</text>
    <rect x="492" width="196" height="50" rx="25" fill="#5e856e"/>
    <text x="518" y="33" fill="#fff7df">One-click install</text>
  </g>
</svg>
