<svg xmlns="http://www.w3.org/2000/svg" width="1280" height="640" viewBox="0 0 1280 640" role="img" aria-labelledby="title desc">
  <title id="title">Tanetsumi no Uta bilingual subtitle patch social preview</title>
  <desc id="desc">A clean social preview image for the Tanetsumi no Uta Chinese and Japanese bilingual subtitle patch.</desc>
  <defs>
    <linearGradient id="sky" x1="0" y1="0" x2="1" y2="1">
      <stop offset="0" stop-color="#cfeeff"/>
      <stop offset="0.52" stop-color="#fff7df"/>
      <stop offset="1" stop-color="#f4c7b4"/>
    </linearGradient>
    <linearGradient id="ink" x1="0" y1="0" x2="1" y2="0">
      <stop offset="0" stop-color="#284566"/>
      <stop offset="1" stop-color="#7d3b36"/>
    </linearGradient>
    <filter id="shadow" x="-20%" y="-20%" width="140%" height="140%">
      <feDropShadow dx="0" dy="8" stdDeviation="12" flood-color="#3b2d25" flood-opacity="0.22"/>
    </filter>
  </defs>
  <rect width="1280" height="640" fill="url(#sky)"/>
  <circle cx="1078" cy="202" r="142" fill="#ffffff" opacity="0.34"/>
  <circle cx="1078" cy="158" r="92" fill="#fff3c8" opacity="0.45"/>
  <path d="M40 424 C208 390 288 452 446 415 C588 382 698 350 852 398 C1008 447 1096 420 1240 380 L1240 640 L40 640 Z" fill="#6fa78f" opacity="0.38"/>
  <path d="M40 456 C198 427 308 475 458 447 C631 414 744 424 886 464 C1042 508 1132 469 1240 445 L1240 640 L40 640 Z" fill="#355c5f" opacity="0.28"/>
  <g filter="url(#shadow)">
    <rect x="122" y="176" width="1036" height="288" rx="24" fill="#fffaf0" opacity="0.88"/>
    <rect x="122" y="176" width="1036" height="288" rx="24" fill="none" stroke="#ffffff" stroke-width="3" opacity="0.75"/>
  </g>
  <text x="160" y="255" font-family="'Noto Serif CJK SC','Source Han Serif SC','Yu Mincho','Times New Roman',serif" font-size="46" font-weight="700" fill="url(#ink)">&#x64AD;&#x79CD;&#x4E4B;&#x8C23; / &#x305F;&#x306D;&#x3064;&#x307F;&#x306E;&#x6B4C;</text>
  <text x="160" y="317" font-family="'Noto Sans CJK SC','Microsoft YaHei','Meiryo',sans-serif" font-size="58" font-weight="800" fill="#27384d">&#x65E5;&#x4E2D;&#x53CC;&#x8BED;&#x5B57;&#x5E55;&#x8865;&#x4E01;</text>
  <text x="164" y="368" font-family="'Noto Sans CJK SC','Microsoft YaHei','Meiryo',sans-serif" font-size="30" fill="#5f5148">Japanese main subtitles + Simplified Chinese support subtitles</text>
  <g transform="translate(162 382)">
    <rect width="214" height="40" rx="20" fill="#27384d" opacity="0.92"/>
    <text x="107" y="20" dominant-baseline="central" text-anchor="middle" font-family="'Noto Sans CJK SC','Microsoft YaHei',sans-serif" font-size="20" font-weight="700" fill="#fff7df">&#x65E5;&#x8BED;&#x5B66;&#x4E60;&#x8005;&#x5411;</text>
  </g>
  <g transform="translate(396 382)">
    <rect width="246" height="40" rx="20" fill="#9b5847" opacity="0.92"/>
    <text x="123" y="20" dominant-baseline="central" text-anchor="middle" font-family="'Noto Sans CJK SC','Microsoft YaHei',sans-serif" font-size="20" font-weight="700" fill="#fff7df">Steam &#x7248; Windows</text>
  </g>
  <g transform="translate(662 382)">
    <rect width="230" height="40" rx="20" fill="#5e856e" opacity="0.94"/>
    <text x="115" y="20" dominant-baseline="central" text-anchor="middle" font-family="'Noto Sans CJK SC','Microsoft YaHei',sans-serif" font-size="20" font-weight="700" fill="#fff7df">&#x4E00;&#x952E;&#x5B89;&#x88C5;/&#x5378;&#x8F7D;</text>
  </g>
</svg>
